<?xml version="1.0" encoding="UTF-8" standalone="no"?><!DOCTYPE svg PUBLIC "-//W3C//DTD SVG 1.1//EN" "http://www.w3.org/Graphics/SVG/1.1/DTD/svg11.dtd"><svg width="100%" height="100%" viewBox="0 0 1080 1080" version="1.1" xmlns="http://www.w3.org/2000/svg" xmlns:xlink="http://www.w3.org/1999/xlink" xml:space="preserve" xmlns:serif="http://www.serif.com/" style="fill-rule:evenodd;clip-rule:evenodd;stroke-linejoin:round;stroke-miterlimit:2;"><rect id="mvvlogo_color_profile" x="0" y="0" width="1080" height="1080" style="fill:none;"/><g id="mvvlogo_color_profile1" serif:id="mvvlogo_color_profile"><clipPath id="_clip1"><rect id="mvvlogo---color.svg" serif:id="mvvlogo - color.svg" x="175.697" y="0" width="728.606" height="1080"/></clipPath><g clip-path="url(#_clip1)"><g id="Camada-1" serif:id="Camada 1"><path id="path132" d="M334.813,289.926c3.554,-9.222 55.261,33.195 57.874,28.958c7.148,-11.602 -30.675,-62.913 -20.357,-69.693c8.488,-5.58 39.386,54.985 48.979,53.696c9.829,-1.317 7.647,-65.729 19.995,-65.729c10.591,-0 2.982,64.845 9.936,67.645c10.467,4.231 19.378,-51.652 29.052,-49.177c8.357,2.125 -7.203,60.71 -0.655,58.261c12.481,-4.658 29.845,-30.22 35.39,-21.106c5.026,8.268 -16.44,19.757 -37.359,67.911c-8.745,20.133 -6.512,35.993 -5.06,57.953c0.904,13.754 6.199,19.573 19.759,20.464c27.869,1.835 55.705,4.484 83.522,7.175c53.22,5.161 105.717,15.519 158.658,22.611c30.979,4.15 62.358,5.205 93.511,7.98c21.586,1.915 43.106,4.664 64.692,6.491c9.088,0.781 11.708,4.658 11.489,13.729c-0.618,26.189 -0.748,52.423 0.044,78.606c0.323,10.245 -3.238,13.126 -12.698,13.648c-46.187,2.568 -92.217,7.042 -138.158,12.498c-179.889,21.319 -351.954,68.875 -513,153.829c-17.888,9.429 -36.225,17.99 -54.124,27.421c-8.415,4.412 -10.692,2.27 -10.603,-6.856c0.778,-79.587 1.446,-159.171 1.74,-238.745c0.05,-13.05 9.062,-18.751 17.551,-24.626c14.55,-10.063 31.596,-14.519 48.661,-17.257c29.975,-4.82 57.393,-15.968 83.552,-30.815c20.707,-11.753 42.643,-20.446 65.763,-25.594c9.649,-2.154 11.795,-6.346 11.39,-15.845c1.01,-45.493 -10.049,-65.7 -34.161,-90.998c-14.207,-14.927 -39.218,-32.511 -35.383,-42.435Z" style="fill:#207353;"/><path id="path134" d="M339.578,159.699c-17.326,-0.36 -29.308,-6.992 -37.503,-19.352c-16.018,-24.144 -18.886,-50.164 -9,-77.522c1.652,-4.589 2.906,-8.889 9.742,-8.034c35.052,4.395 66.536,51.135 56.49,85.198c-3.082,10.47 -6.438,22.429 -19.729,19.71Z" style="fill:#207353;"/><path id="path136" d="M565.136,121.121c-1.99,22.133 -8.471,48.274 -36.693,59.768c-25.06,10.207 -42.368,8.436 -41.607,-25.618c0.617,-27.716 15.693,-48.501 46.51,-61.426c26.919,-11.295 31.807,-7.942 31.79,27.276Z" style="fill:#207353;"/><path id="path138" d="M435.403,66.297c0.881,15.454 -6.659,28.787 -17.201,40.54c-9.948,11.105 -18.681,11.235 -30.094,1.558c-20.269,-17.208 -25.615,-49.027 -11.956,-74.352c4.117,-7.614 9.368,-14.657 14.583,-21.607c12.479,-16.616 12.954,-16.666 26.083,0.36c11.825,15.311 19.048,32.449 18.585,53.517l0,-0.016Z" style="fill:#207353;"/><path id="path140" d="M237.527,198.395c26.29,-0.36 49.131,13.918 54.544,34.312c2.282,8.594 0.562,14.834 -6.675,20.133c-11.868,8.681 -24.497,12.8 -39.2,9.233c-23.924,-5.807 -40.92,-19.979 -52.365,-41.813c-3.736,-7.132 -1.996,-10.295 4.608,-13.303c12.026,-5.472 24.713,-7.527 39.088,-8.562Z" style="fill:#207353;"/><path id="path142" d="M573.75,281.406c-4.977,0.159 -12.088,-1.958 -18.874,-4.2c-21.144,-6.982 -25.304,-22.435 -11.115,-39.994c17.271,-21.355 40.186,-26.874 70.404,-16.937c26.496,8.726 26.614,8.802 10.629,31.514c-11.913,16.929 -22.896,28.762 -51.044,29.617Z" style="fill:#207353;"/><path id="path144" d="M276.011,281.685c17.513,-0.201 32.775,10.263 32.251,22.071c-0.592,12.925 -18.474,25.543 -34.584,24.062c-13.415,-1.238 -24.044,-8.977 -34.927,-15.996c-4.461,-2.875 -3.705,-6.333 -0.749,-9.673c10.172,-11.5 21.811,-20.303 38.009,-20.464Z" style="fill:#207353;"/><path id="path146" d="M546.88,352.914c-13.117,0.777 -22.735,-7.168 -30.305,-17.671c-6.362,-8.813 -2.713,-18.197 8.089,-23.691c20.756,-10.572 50.307,0.684 60.107,22.341c2.582,5.687 -1.212,7.189 -4.149,8.858c-10.13,5.706 -20.731,10.296 -33.742,10.163Z" style="fill:#207353;"/><path id="path148" d="M474.112,171.398c-0.493,14.64 -9.269,24.452 -21.8,31.08c-8.7,4.607 -14.731,-0.788 -19.047,-7.853c-11.738,-19.126 1.066,-52.517 22.716,-60.954c5.194,-2.021 6.99,-0.08 8.838,3.797c5.02,10.539 8.894,21.413 9.293,33.929l-0,0.001Z" style="fill:#207353;"/><path id="path150" d="M347.718,240.692c-22.804,-0.616 -45.556,-33.057 -37.953,-53.936c1.204,-3.32 3.219,-4.475 6.437,-4.357c22.453,0.821 46.652,14.081 48.743,40.127c1.041,13.019 -4.305,18.511 -17.227,18.166Z" style="fill:#207353;"/><path id="path152" d="M285.054,169.279c2.02,9.743 -3.962,12.297 -13.298,11.413c-4.791,-0.445 -9.412,-0.805 -13.56,-3.98c-8.37,-6.449 -16.815,-26.095 -13.502,-33.345c2.898,-6.329 9.186,-3.425 13.708,-2.631c17.071,2.963 26.345,12.806 26.652,28.543Z" style="fill:#207353;"/><path id="path154" d="M523.447,208.197c5.02,0.281 10.827,-1.317 10.571,7.433c-0.443,15.582 -15.032,31.163 -30.231,31.194c-7.316,0.018 -14.571,0.119 -14.14,-11.062c0.637,-16.655 13.698,-27.703 33.8,-27.565Z" style="fill:#207353;"/><path id="path156" d="M377.536,163.975c1.454,-4.833 1.26,-10.898 9.649,-8.619c14.945,4.067 26.602,21.972 23.095,36.862c-1.682,7.155 -3.273,14.289 -13.982,11.268c-15.943,-4.502 -23.577,-19.864 -18.762,-39.511Z" style="fill:#207353;"/><path id="path158" d="M600.454,149.072c5.653,0.239 11.777,-0.918 11.297,7.731c-0.948,15.212 -16.902,31.702 -30.954,31.231c-8.227,-0.281 -13.354,-3.215 -12.998,-13.001c0.547,-15.246 13.408,-26.879 32.655,-25.961Z" style="fill:#207353;"/><path id="path160" d="M501.113,65.447c0.194,11.725 -2.844,22.19 -14.558,27.589c-4.783,2.206 -8.427,0.24 -11.334,-3.417c-7.89,-9.931 -7.015,-20.665 -1.913,-31.273c4.084,-8.487 10.689,-18.558 20.09,-15.431c5.605,1.858 7.571,14.143 7.715,22.53l-0,0.002Z" style="fill:#207353;"/><path id="path162" d="M331.957,360.579c-4.753,-0.119 -12.662,1.947 -12.993,-7.708c-0.294,-8.042 13.816,-19.498 23.795,-19.355c6.568,0.081 14.153,0.081 14.477,9.787c0.305,9.386 -10.879,17.634 -25.279,17.276Z" style="fill:#207353;"/><path id="path164" d="M314.805,1079.81c11.638,-15.7 25.11,-26.969 37.334,-38.13c101.153,-92.228 212.018,-170.389 334.675,-231.092c56.914,-28.18 116.035,-50.892 176.297,-70.547c2.707,-0.885 36.177,-13.32 39.032,-6.012c1.959,5.058 1.565,21.146 1.585,32.221c0.069,100.892 -0.044,201.796 0.442,302.687c0.044,8.971 -2.994,10.986 -10.539,10.917c-13.006,-0.121 -26.029,0.08 -39.033,0.12c-173.016,0.121 -539.793,-0.161 -539.793,-0.161l-0,-0.003Z" style="fill:#c0a630;"/></g></g></g></svg>
